<mxfile host="app.diagrams.net" agent="Mozilla/5.0 (Windows NT 10.0; Win64; x64) AppleWebKit/537.36 (KHTML, like Gecko) Chrome/138.0.0.0 Safari/537.36" version="28.2.0">
  <diagram name="Page-1" id="l0NQoFcrTeCU183ZOKj6">
    <mxGraphModel dx="1186" dy="755" grid="1" gridSize="10" guides="1" tooltips="1" connect="1" arrows="1" fold="1" page="1" pageScale="1" pageWidth="827" pageHeight="1169" math="0" shadow="0">
      <root>
        <mxCell id="0" />
        <mxCell id="1" parent="0" />
        <mxCell id="rNixJkJzXGHEgD_EUo5f-1" value="" style="swimlane;startSize=0;" vertex="1" parent="1">
          <mxGeometry x="197" y="50" width="630" height="720" as="geometry" />
        </mxCell>
        <mxCell id="rNixJkJzXGHEgD_EUo5f-2" value="&lt;font style=&quot;font-size: 18px;&quot;&gt;logiciel suivi les produits&lt;/font&gt;" style="text;html=1;align=center;verticalAlign=middle;resizable=0;points=[];autosize=1;strokeColor=none;fillColor=none;" vertex="1" parent="rNixJkJzXGHEgD_EUo5f-1">
          <mxGeometry x="217" y="15" width="220" height="40" as="geometry" />
        </mxCell>
        <mxCell id="rNixJkJzXGHEgD_EUo5f-4" value="&lt;font style=&quot;font-size: 14px;&quot;&gt;consulter le système&lt;/font&gt;" style="ellipse;whiteSpace=wrap;html=1;" vertex="1" parent="rNixJkJzXGHEgD_EUo5f-1">
          <mxGeometry x="120" y="80" width="200" height="80" as="geometry" />
        </mxCell>
        <mxCell id="rNixJkJzXGHEgD_EUo5f-5" value="&lt;font style=&quot;font-size: 14px;&quot;&gt;vérifier un produit&lt;/font&gt;" style="ellipse;whiteSpace=wrap;html=1;" vertex="1" parent="rNixJkJzXGHEgD_EUo5f-1">
          <mxGeometry x="40" y="200" width="160" height="80" as="geometry" />
        </mxCell>
        <mxCell id="rNixJkJzXGHEgD_EUo5f-6" value="&lt;font style=&quot;font-size: 14px;&quot;&gt;Parcours libre des informations&lt;/font&gt;" style="ellipse;whiteSpace=wrap;html=1;" vertex="1" parent="rNixJkJzXGHEgD_EUo5f-1">
          <mxGeometry x="330" y="200" width="160" height="80" as="geometry" />
        </mxCell>
        <mxCell id="rNixJkJzXGHEgD_EUo5f-8" value="" style="endArrow=none;html=1;rounded=0;entryX=0.205;entryY=0.963;entryDx=0;entryDy=0;entryPerimeter=0;exitX=0.5;exitY=0;exitDx=0;exitDy=0;" edge="1" parent="rNixJkJzXGHEgD_EUo5f-1" source="rNixJkJzXGHEgD_EUo5f-5" target="rNixJkJzXGHEgD_EUo5f-4">
          <mxGeometry width="50" height="50" relative="1" as="geometry">
            <mxPoint x="190" y="380" as="sourcePoint" />
            <mxPoint x="240" y="330" as="targetPoint" />
          </mxGeometry>
        </mxCell>
        <mxCell id="rNixJkJzXGHEgD_EUo5f-9" value="" style="endArrow=none;html=1;rounded=0;entryX=0.77;entryY=0.925;entryDx=0;entryDy=0;entryPerimeter=0;exitX=0.5;exitY=0;exitDx=0;exitDy=0;" edge="1" parent="rNixJkJzXGHEgD_EUo5f-1" source="rNixJkJzXGHEgD_EUo5f-6" target="rNixJkJzXGHEgD_EUo5f-4">
          <mxGeometry width="50" height="50" relative="1" as="geometry">
            <mxPoint x="190" y="380" as="sourcePoint" />
            <mxPoint x="240" y="330" as="targetPoint" />
          </mxGeometry>
        </mxCell>
        <mxCell id="rNixJkJzXGHEgD_EUo5f-10" value="&lt;font style=&quot;font-size: 14px;&quot;&gt;S&#39;authentifier&lt;/font&gt;&lt;div&gt;&lt;font style=&quot;font-size: 14px;&quot;&gt;simple&lt;/font&gt;&lt;/div&gt;" style="ellipse;whiteSpace=wrap;html=1;" vertex="1" parent="rNixJkJzXGHEgD_EUo5f-1">
          <mxGeometry x="463" y="105" width="140" height="80" as="geometry" />
        </mxCell>
        <mxCell id="rNixJkJzXGHEgD_EUo5f-11" value="" style="endArrow=block;dashed=1;endFill=0;endSize=12;html=1;rounded=0;exitX=1;exitY=0.5;exitDx=0;exitDy=0;entryX=0;entryY=0;entryDx=0;entryDy=0;" edge="1" parent="rNixJkJzXGHEgD_EUo5f-1" source="rNixJkJzXGHEgD_EUo5f-4" target="rNixJkJzXGHEgD_EUo5f-10">
          <mxGeometry width="160" relative="1" as="geometry">
            <mxPoint x="130" y="360" as="sourcePoint" />
            <mxPoint x="290" y="360" as="targetPoint" />
          </mxGeometry>
        </mxCell>
        <mxCell id="rNixJkJzXGHEgD_EUo5f-12" value="&amp;lt;&amp;lt;includ&amp;gt;&amp;gt;" style="text;html=1;align=center;verticalAlign=middle;resizable=0;points=[];autosize=1;strokeColor=none;fillColor=none;" vertex="1" parent="rNixJkJzXGHEgD_EUo5f-1">
          <mxGeometry x="370" y="80" width="80" height="30" as="geometry" />
        </mxCell>
        <mxCell id="rNixJkJzXGHEgD_EUo5f-14" value="&lt;font style=&quot;font-size: 14px;&quot;&gt;gerer les produits&lt;/font&gt;" style="ellipse;whiteSpace=wrap;html=1;" vertex="1" parent="rNixJkJzXGHEgD_EUo5f-1">
          <mxGeometry x="130" y="440" width="200" height="80" as="geometry" />
        </mxCell>
        <mxCell id="rNixJkJzXGHEgD_EUo5f-15" value="&lt;font style=&quot;font-size: 14px;&quot;&gt;ajouter&lt;/font&gt;" style="ellipse;whiteSpace=wrap;html=1;" vertex="1" parent="rNixJkJzXGHEgD_EUo5f-1">
          <mxGeometry x="30" y="600" width="120" height="80" as="geometry" />
        </mxCell>
        <mxCell id="rNixJkJzXGHEgD_EUo5f-16" value="&lt;font style=&quot;font-size: 14px;&quot;&gt;suprimer&lt;/font&gt;" style="ellipse;whiteSpace=wrap;html=1;" vertex="1" parent="rNixJkJzXGHEgD_EUo5f-1">
          <mxGeometry x="180" y="600" width="120" height="80" as="geometry" />
        </mxCell>
        <mxCell id="rNixJkJzXGHEgD_EUo5f-17" value="&lt;font style=&quot;font-size: 14px;&quot;&gt;modefier&lt;/font&gt;" style="ellipse;whiteSpace=wrap;html=1;" vertex="1" parent="rNixJkJzXGHEgD_EUo5f-1">
          <mxGeometry x="330" y="600" width="120" height="80" as="geometry" />
        </mxCell>
        <mxCell id="rNixJkJzXGHEgD_EUo5f-18" value="" style="endArrow=none;html=1;rounded=0;exitX=0.333;exitY=0;exitDx=0;exitDy=0;exitPerimeter=0;entryX=0;entryY=1;entryDx=0;entryDy=0;" edge="1" parent="rNixJkJzXGHEgD_EUo5f-1" source="rNixJkJzXGHEgD_EUo5f-15" target="rNixJkJzXGHEgD_EUo5f-14">
          <mxGeometry width="50" height="50" relative="1" as="geometry">
            <mxPoint x="190" y="390" as="sourcePoint" />
            <mxPoint x="240" y="340" as="targetPoint" />
          </mxGeometry>
        </mxCell>
        <mxCell id="rNixJkJzXGHEgD_EUo5f-19" value="" style="endArrow=none;html=1;rounded=0;exitX=0.5;exitY=0;exitDx=0;exitDy=0;entryX=0.61;entryY=1.038;entryDx=0;entryDy=0;entryPerimeter=0;" edge="1" parent="rNixJkJzXGHEgD_EUo5f-1" source="rNixJkJzXGHEgD_EUo5f-16" target="rNixJkJzXGHEgD_EUo5f-14">
          <mxGeometry width="50" height="50" relative="1" as="geometry">
            <mxPoint x="190" y="390" as="sourcePoint" />
            <mxPoint x="240" y="340" as="targetPoint" />
          </mxGeometry>
        </mxCell>
        <mxCell id="rNixJkJzXGHEgD_EUo5f-20" value="" style="endArrow=none;html=1;rounded=0;entryX=0.96;entryY=0.725;entryDx=0;entryDy=0;entryPerimeter=0;exitX=0.5;exitY=0;exitDx=0;exitDy=0;" edge="1" parent="rNixJkJzXGHEgD_EUo5f-1" source="rNixJkJzXGHEgD_EUo5f-17" target="rNixJkJzXGHEgD_EUo5f-14">
          <mxGeometry width="50" height="50" relative="1" as="geometry">
            <mxPoint x="380" y="490" as="sourcePoint" />
            <mxPoint x="240" y="340" as="targetPoint" />
          </mxGeometry>
        </mxCell>
        <mxCell id="rNixJkJzXGHEgD_EUo5f-22" value="&lt;font style=&quot;font-size: 14px;&quot;&gt;&amp;nbsp;S&#39;authentifier plus approfondie&lt;/font&gt;" style="ellipse;whiteSpace=wrap;html=1;" vertex="1" parent="rNixJkJzXGHEgD_EUo5f-1">
          <mxGeometry x="445" y="440" width="130" height="80" as="geometry" />
        </mxCell>
        <mxCell id="rNixJkJzXGHEgD_EUo5f-23" value="" style="endArrow=block;dashed=1;endFill=0;endSize=12;html=1;rounded=0;entryX=0;entryY=0.5;entryDx=0;entryDy=0;exitX=1;exitY=0.5;exitDx=0;exitDy=0;" edge="1" parent="rNixJkJzXGHEgD_EUo5f-1" source="rNixJkJzXGHEgD_EUo5f-14" target="rNixJkJzXGHEgD_EUo5f-22">
          <mxGeometry width="160" relative="1" as="geometry">
            <mxPoint x="130" y="370" as="sourcePoint" />
            <mxPoint x="290" y="370" as="targetPoint" />
          </mxGeometry>
        </mxCell>
        <mxCell id="rNixJkJzXGHEgD_EUo5f-24" value="&amp;lt;&amp;lt;includ&amp;gt;&amp;gt;" style="text;html=1;align=center;verticalAlign=middle;resizable=0;points=[];autosize=1;strokeColor=none;fillColor=none;" vertex="1" parent="rNixJkJzXGHEgD_EUo5f-1">
          <mxGeometry x="350" y="440" width="80" height="30" as="geometry" />
        </mxCell>
        <mxCell id="rNixJkJzXGHEgD_EUo5f-27" value="&lt;font style=&quot;font-size: 14px;&quot;&gt;&amp;nbsp;enregistrer toutes&amp;nbsp;&lt;/font&gt;&lt;div&gt;&lt;font style=&quot;font-size: 14px;&quot;&gt;les operations&lt;/font&gt;&lt;/div&gt;" style="ellipse;whiteSpace=wrap;html=1;" vertex="1" parent="rNixJkJzXGHEgD_EUo5f-1">
          <mxGeometry x="403" y="310" width="150" height="80" as="geometry" />
        </mxCell>
        <mxCell id="rNixJkJzXGHEgD_EUo5f-28" value="" style="endArrow=block;dashed=1;endFill=0;endSize=12;html=1;rounded=0;exitX=0.5;exitY=1;exitDx=0;exitDy=0;entryX=0.067;entryY=0.238;entryDx=0;entryDy=0;entryPerimeter=0;" edge="1" parent="rNixJkJzXGHEgD_EUo5f-1" source="rNixJkJzXGHEgD_EUo5f-4" target="rNixJkJzXGHEgD_EUo5f-27">
          <mxGeometry width="160" relative="1" as="geometry">
            <mxPoint x="133" y="370" as="sourcePoint" />
            <mxPoint x="293" y="370" as="targetPoint" />
          </mxGeometry>
        </mxCell>
        <mxCell id="rNixJkJzXGHEgD_EUo5f-29" value="" style="endArrow=block;dashed=1;endFill=0;endSize=12;html=1;rounded=0;exitX=0;exitY=0;exitDx=0;exitDy=0;" edge="1" parent="rNixJkJzXGHEgD_EUo5f-1" source="rNixJkJzXGHEgD_EUo5f-14" target="rNixJkJzXGHEgD_EUo5f-27">
          <mxGeometry width="160" relative="1" as="geometry">
            <mxPoint x="133" y="370" as="sourcePoint" />
            <mxPoint x="293" y="370" as="targetPoint" />
          </mxGeometry>
        </mxCell>
        <mxCell id="rNixJkJzXGHEgD_EUo5f-30" value="&amp;lt;&amp;lt;includ&amp;gt;&amp;gt;" style="text;html=1;align=center;verticalAlign=middle;resizable=0;points=[];autosize=1;strokeColor=none;fillColor=none;" vertex="1" parent="rNixJkJzXGHEgD_EUo5f-1">
          <mxGeometry x="213" y="220" width="80" height="30" as="geometry" />
        </mxCell>
        <mxCell id="rNixJkJzXGHEgD_EUo5f-35" value="&lt;font style=&quot;font-size: 14px;&quot;&gt;impression des documents&lt;/font&gt;" style="ellipse;whiteSpace=wrap;html=1;" vertex="1" parent="rNixJkJzXGHEgD_EUo5f-1">
          <mxGeometry x="40" y="320" width="155" height="80" as="geometry" />
        </mxCell>
        <mxCell id="rNixJkJzXGHEgD_EUo5f-31" value="&amp;lt;&amp;lt;includ&amp;gt;&amp;gt;" style="text;html=1;align=center;verticalAlign=middle;resizable=0;points=[];autosize=1;strokeColor=none;fillColor=none;" vertex="1" parent="rNixJkJzXGHEgD_EUo5f-1">
          <mxGeometry x="240" y="380" width="80" height="30" as="geometry" />
        </mxCell>
        <mxCell id="rNixJkJzXGHEgD_EUo5f-38" value="&amp;lt;&amp;lt;extend&amp;gt;&amp;gt;" style="text;html=1;align=center;verticalAlign=middle;resizable=0;points=[];autosize=1;strokeColor=none;fillColor=none;" vertex="1" parent="rNixJkJzXGHEgD_EUo5f-1">
          <mxGeometry x="230" y="320" width="90" height="30" as="geometry" />
        </mxCell>
        <mxCell id="rNixJkJzXGHEgD_EUo5f-40" value="" style="endArrow=block;dashed=1;endFill=0;endSize=12;html=1;rounded=0;entryX=1;entryY=0.5;entryDx=0;entryDy=0;exitX=0;exitY=0.5;exitDx=0;exitDy=0;" edge="1" parent="rNixJkJzXGHEgD_EUo5f-1" source="rNixJkJzXGHEgD_EUo5f-27" target="rNixJkJzXGHEgD_EUo5f-35">
          <mxGeometry width="160" relative="1" as="geometry">
            <mxPoint x="200" y="310" as="sourcePoint" />
            <mxPoint x="360" y="310" as="targetPoint" />
          </mxGeometry>
        </mxCell>
        <mxCell id="rNixJkJzXGHEgD_EUo5f-3" value="&lt;font style=&quot;font-size: 14px;&quot;&gt;personnel&lt;/font&gt;" style="shape=umlActor;verticalLabelPosition=bottom;verticalAlign=top;html=1;outlineConnect=0;" vertex="1" parent="1">
          <mxGeometry x="35" y="130" width="40" height="80" as="geometry" />
        </mxCell>
        <mxCell id="rNixJkJzXGHEgD_EUo5f-7" value="" style="endArrow=none;html=1;rounded=0;entryX=0;entryY=0.5;entryDx=0;entryDy=0;" edge="1" parent="1" source="rNixJkJzXGHEgD_EUo5f-3" target="rNixJkJzXGHEgD_EUo5f-4">
          <mxGeometry width="50" height="50" relative="1" as="geometry">
            <mxPoint x="390" y="420" as="sourcePoint" />
            <mxPoint x="440" y="370" as="targetPoint" />
          </mxGeometry>
        </mxCell>
        <mxCell id="rNixJkJzXGHEgD_EUo5f-13" value="&lt;font style=&quot;font-size: 14px;&quot;&gt;Ingenieur&lt;/font&gt;" style="shape=umlActor;verticalLabelPosition=bottom;verticalAlign=top;html=1;" vertex="1" parent="1">
          <mxGeometry x="30" y="500" width="50" height="80" as="geometry" />
        </mxCell>
        <mxCell id="rNixJkJzXGHEgD_EUo5f-21" value="" style="endArrow=none;html=1;rounded=0;entryX=0;entryY=0.5;entryDx=0;entryDy=0;" edge="1" parent="1" source="rNixJkJzXGHEgD_EUo5f-13" target="rNixJkJzXGHEgD_EUo5f-14">
          <mxGeometry width="50" height="50" relative="1" as="geometry">
            <mxPoint x="390" y="430" as="sourcePoint" />
            <mxPoint x="440" y="380" as="targetPoint" />
          </mxGeometry>
        </mxCell>
        <mxCell id="rNixJkJzXGHEgD_EUo5f-25" value="&lt;font style=&quot;font-size: 14px;&quot;&gt;le système de gestion&lt;/font&gt;&lt;div&gt;&lt;font size=&quot;3&quot;&gt;&amp;nbsp;du personnel&lt;/font&gt;&lt;/div&gt;" style="shape=umlActor;verticalLabelPosition=bottom;verticalAlign=top;html=1;" vertex="1" parent="1">
          <mxGeometry x="900" y="480" width="50" height="80" as="geometry" />
        </mxCell>
        <mxCell id="rNixJkJzXGHEgD_EUo5f-26" value="" style="endArrow=none;html=1;rounded=0;exitX=1;exitY=0.5;exitDx=0;exitDy=0;" edge="1" parent="1" source="rNixJkJzXGHEgD_EUo5f-22" target="rNixJkJzXGHEgD_EUo5f-25">
          <mxGeometry width="50" height="50" relative="1" as="geometry">
            <mxPoint x="390" y="430" as="sourcePoint" />
            <mxPoint x="440" y="380" as="targetPoint" />
          </mxGeometry>
        </mxCell>
        <mxCell id="rNixJkJzXGHEgD_EUo5f-34" value="directeur" style="shape=umlActor;verticalLabelPosition=bottom;verticalAlign=top;html=1;" vertex="1" parent="1">
          <mxGeometry x="110" y="370" width="40" height="80" as="geometry" />
        </mxCell>
        <mxCell id="rNixJkJzXGHEgD_EUo5f-36" value="" style="endArrow=none;html=1;rounded=0;exitX=0;exitY=0.5;exitDx=0;exitDy=0;" edge="1" parent="1" source="rNixJkJzXGHEgD_EUo5f-35" target="rNixJkJzXGHEgD_EUo5f-34">
          <mxGeometry width="50" height="50" relative="1" as="geometry">
            <mxPoint x="390" y="440" as="sourcePoint" />
            <mxPoint x="440" y="390" as="targetPoint" />
          </mxGeometry>
        </mxCell>
        <mxCell id="rNixJkJzXGHEgD_EUo5f-39" value="" style="endArrow=classic;html=1;rounded=0;exitX=0.5;exitY=0;exitDx=0;exitDy=0;exitPerimeter=0;" edge="1" parent="1" source="rNixJkJzXGHEgD_EUo5f-13">
          <mxGeometry width="50" height="50" relative="1" as="geometry">
            <mxPoint x="110" y="520" as="sourcePoint" />
            <mxPoint x="55" y="240" as="targetPoint" />
          </mxGeometry>
        </mxCell>
        <mxCell id="rNixJkJzXGHEgD_EUo5f-42" value="" style="endArrow=classic;html=1;rounded=0;exitX=0.5;exitY=0;exitDx=0;exitDy=0;exitPerimeter=0;" edge="1" parent="1" source="rNixJkJzXGHEgD_EUo5f-34">
          <mxGeometry width="50" height="50" relative="1" as="geometry">
            <mxPoint x="390" y="440" as="sourcePoint" />
            <mxPoint x="80" y="240" as="targetPoint" />
          </mxGeometry>
        </mxCell>
      </root>
    </mxGraphModel>
  </diagram>
</mxfile>
